# Blender v2.93.1 OBJ File: ''
# www.blender.org
mtllib forte.mtl
o Cube
v 1.000000 1.000000 -1.000000
v 1.000000 -1.000000 -1.000000
v 1.000000 1.000000 1.000000
v 1.000000 -1.000000 1.000000
v -1.000000 1.000000 -1.000000
v -1.000000 -1.000000 -1.000000
v -1.000000 1.000000 1.000000
v -1.000000 -1.000000 1.000000
vt 0.625000 0.500000
vt 0.875000 0.500000
vt 0.875000 0.750000
vt 0.625000 0.750000
vt 0.375000 0.750000
vt 0.625000 1.000000
vt 0.375000 1.000000
vt 0.375000 0.000000
vt 0.625000 0.000000
vt 0.625000 0.250000
vt 0.375000 0.250000
vt 0.125000 0.500000
vt 0.375000 0.500000
vt 0.125000 0.750000
vn 0.0000 1.0000 0.0000
vn 0.0000 0.0000 1.0000
vn -1.0000 0.0000 0.0000
vn 0.0000 -1.0000 0.0000
vn 1.0000 0.0000 0.0000
vn 0.0000 0.0000 -1.0000
usemtl Material
s off
f 1/1/1 5/2/1 7/3/1 3/4/1
f 4/5/2 3/4/2 7/6/2 8/7/2
f 8/8/3 7/9/3 5/10/3 6/11/3
f 6/12/4 2/13/4 4/5/4 8/14/4
f 2/13/5 1/1/5 3/4/5 4/5/5
f 6/11/6 5/10/6 1/1/6 2/13/6
o PROVA
v -3.000000 0.000000 -17.500000
v -2.999999 17.000000 -17.500000
v -2.999999 17.000000 -15.000001
v -3.000000 0.000000 -15.000001
v 0.000000 0.000000 -17.500000
v 0.000001 17.000000 -17.500000
v -3.654932 0.000000 -19.502239
v -2.479020 0.000000 -19.961510
v -4.537793 0.000000 -18.599878
v -4.628910 0.000000 -16.383148
v -4.971267 0.000000 -17.414213
v -3.941782 0.000000 -15.541622
v -1.327318 0.000000 -19.518084
v -0.451578 0.000000 -18.648531
v -1.327317 17.000000 -19.518084
v -2.479018 17.000000 -19.961510
v -3.654931 17.000000 -19.502239
v -0.451577 17.000000 -18.648531
v -4.628908 17.000000 -16.383148
v -3.941781 17.000000 -15.541622
v -4.537791 17.000000 -18.599878
v -4.971265 17.000000 -17.414213
v 12.000002 16.999998 -17.500000
v 10.000002 17.000000 -17.500000
v 10.000000 -0.000001 -17.500000
v 12.000000 -0.000001 -17.500000
v 12.000000 -0.000001 -15.000001
v 12.000002 16.999998 -15.000001
v 14.506462 -0.000001 -18.648531
v 14.958040 -0.000001 -17.500000
v 14.414804 -0.000001 -16.219910
v 11.327318 -0.000001 -19.518084
v 12.479020 -0.000001 -19.961510
v 10.451578 -0.000001 -18.648531
v 13.352725 -0.000001 -15.322289
v 13.630722 -0.000001 -19.518084
v 14.414805 16.999998 -16.219910
v 14.958042 16.999998 -17.500000
v 13.352727 16.999998 -15.322289
v 11.327320 16.999998 -19.518084
v 10.451580 17.000000 -18.648531
v 13.630724 16.999998 -19.518084
v 12.479022 16.999998 -19.961510
v 14.506464 16.999998 -18.648531
v 12.000000 -0.000001 7.500000
v 12.000002 16.999998 7.500000
v 12.000002 16.999998 5.000000
v 12.000000 -0.000001 5.000000
v 10.000000 -0.000001 7.500000
v 10.000002 17.000000 7.500000
v 14.414804 -0.000001 6.219910
v 14.958040 -0.000001 7.500000
v 13.352725 -0.000001 5.322289
v 11.327318 -0.000001 9.518084
v 10.451578 -0.000001 8.648530
v 13.630722 -0.000001 9.518084
v 12.479020 -0.000001 9.961510
v 14.506462 -0.000001 8.648530
v 14.506464 16.999998 8.648530
v 14.958042 16.999998 7.500000
v 14.414805 16.999998 6.219910
v 11.327320 16.999998 9.518084
v 12.479022 16.999998 9.961510
v 10.451580 17.000000 8.648530
v 13.352727 16.999998 5.322289
v 13.630724 16.999998 9.518084
v 0.000000 2.000000 -28.000000
v 0.000000 0.000000 -28.000000
v 10.000000 -0.000001 -28.000000
v 10.000000 1.999999 -28.000000
v 10.000000 -0.000001 -30.000002
v 10.000000 1.999999 -30.000002
v 0.000000 0.000000 -30.000002
v 0.000000 2.000000 -30.000002
v -3.000000 0.000000 7.500000
v -2.999999 17.000000 7.500000
v 0.000001 17.000000 7.500000
v 0.000000 0.000000 7.500000
v -3.000000 0.000000 5.000000
v -2.999999 17.000000 5.000000
v -1.327318 0.000000 9.518084
v -2.479020 0.000000 9.961510
v -3.654932 0.000000 9.502239
v -0.451578 0.000000 8.648530
v -4.628910 0.000000 6.383146
v -3.941782 0.000000 5.541621
v -4.537793 0.000000 8.599877
v -4.971267 0.000000 7.414214
v -3.654931 17.000000 9.502239
v -2.479018 17.000000 9.961510
v -4.537791 17.000000 8.599877
v -4.628908 17.000000 6.383146
v -4.971265 17.000000 7.414214
v -3.941781 17.000000 5.541621
v -1.327317 17.000000 9.518084
v -0.451577 17.000000 8.648530
v 10.000001 15.000000 -17.500000
v 10.000001 15.999999 -17.500000
v 10.000001 15.999999 -15.000001
v 10.000001 15.000000 -15.000001
v 0.000001 16.000000 -15.000001
v 0.000001 15.000001 -15.000001
v 0.000001 16.000000 -17.500000
v 0.000001 15.000001 -17.500000
v 10.000001 15.000000 5.000000
v 10.000001 15.999999 5.000000
v 10.000001 15.999999 7.500000
v 10.000001 15.000000 7.500000
v 0.000001 16.000000 7.500000
v 0.000001 15.000001 7.500000
v 0.000001 16.000000 5.000000
v 0.000001 15.000001 5.000000
v 0.000001 14.000000 -18.500000
v 0.000000 0.000000 -18.500000
v 10.000000 -0.000001 -18.500000
v 10.000001 13.999999 -18.500000
v 10.000000 -0.000001 -20.000000
v 10.000001 13.999999 -20.000000
v 0.000000 0.000000 -20.000000
v 0.000001 14.000000 -20.000000
v -2.999999 16.000000 5.000000
v -2.999999 15.000001 5.000000
v -2.999999 16.000000 -15.000001
v -2.999999 15.000001 -15.000001
v 12.000001 15.000000 -17.500000
v -2.999999 15.000001 -17.500000
v -2.999999 15.000001 7.500000
v -2.999999 10.000000 0.000000
v -2.999999 10.000000 -10.000000
v -3.000000 0.000000 -10.000000
v -3.000000 0.000000 0.000000
v 12.000001 15.000000 7.500000
v -2.000000 0.000000 0.000000
v -2.000000 0.000000 -10.000000
v -1.999999 10.000000 0.000000
v -1.999999 10.000000 -10.000000
v 12.000001 15.000000 -15.000001
v 12.000001 15.000000 5.000000
v 12.000001 15.999999 5.000000
v 12.000001 15.999999 -15.000001
v 10.000001 15.000000 -18.500000
v 0.000001 15.000001 -18.500000
v 0.000001 12.000000 -20.000000
v 10.000001 11.999999 -20.000000
v 10.000000 -0.000001 -21.500000
v 10.000001 11.999999 -21.500000
v 0.000000 0.000000 -21.500000
v 0.000001 12.000000 -21.500000
v 0.000001 10.000000 -21.500000
v 10.000001 9.999999 -21.500000
v 10.000000 -0.000001 -23.000000
v 10.000001 9.999999 -23.000000
v 0.000000 0.000000 -23.000000
v 0.000001 10.000000 -23.000000
v 0.000001 8.000000 -23.000000
v 10.000001 7.999999 -23.000000
v 10.000000 -0.000001 -24.500000
v 10.000001 7.999999 -24.500000
v 0.000000 0.000000 -24.500000
v 0.000001 8.000000 -24.500000
v 0.000000 4.000000 -26.000000
v 0.000000 0.000000 -26.000000
v 10.000000 -0.000001 -26.000000
v 10.000000 3.999999 -26.000000
v 10.000000 3.999999 -28.000000
v 0.000000 4.000000 -28.000000
v 0.000001 6.000000 -24.500000
v 10.000001 5.999999 -24.500000
v 10.000001 5.999999 -26.000000
v 0.000001 6.000000 -26.000000
vn 1.0000 -0.0000 0.0000
vn 0.0000 0.0000 1.0000
vn -0.0000 -1.0000 0.0000
vn 0.0000 1.0000 0.0000
vn -0.9491 0.0000 0.3151
vn -0.7746 0.0000 0.6325
vn -0.4985 0.0000 0.8669
vn 0.3593 -0.0000 -0.9332
vn 0.7046 -0.0000 -0.7096
vn 0.9306 -0.0000 -0.3659
vn -0.3638 0.0000 -0.9315
vn -0.7148 0.0000 -0.6993
vn -0.9392 0.0000 -0.3434
vn -1.0000 0.0000 0.0000
vn -0.9306 0.0000 -0.3659
vn -0.7046 0.0000 -0.7096
vn -0.3593 0.0000 -0.9332
vn 0.2318 0.0000 0.9728
vn 0.6455 -0.0000 0.7638
vn 0.9205 0.0000 0.3907
vn -0.0000 0.0000 -1.0000
vn 0.9205 0.0000 -0.3907
vn 0.6455 -0.0000 -0.7638
vn 0.2318 0.0000 -0.9728
vn 0.3593 -0.0000 0.9332
vn 0.7046 -0.0000 0.7096
vn 0.9306 -0.0000 0.3659
vn -0.3593 0.0000 0.9332
vn -0.7046 0.0000 0.7096
vn -0.9306 0.0000 0.3659
vn -0.9392 0.0000 0.3434
vn -0.7148 0.0000 0.6993
vn -0.3638 0.0000 0.9315
vn -0.4985 0.0000 -0.8669
vn -0.7746 0.0000 -0.6325
vn -0.9491 0.0000 -0.3151
usemtl None
s off
f 9//7 10//7 11//7
f 11//7 12//7 9//7
f 13//8 14//8 10//8
f 10//8 9//8 13//8
f 9//9 15//9 16//9
f 9//9 17//9 15//9
f 9//9 18//9 19//9
f 9//9 12//9 20//9
f 16//9 21//9 9//9
f 20//9 18//9 9//9
f 21//9 22//9 9//9
f 22//9 13//9 9//9
f 19//9 17//9 9//9
f 10//10 23//10 24//10
f 24//10 25//10 10//10
f 10//10 26//10 23//10
f 10//10 27//10 28//10
f 10//10 29//10 30//10
f 10//10 14//10 26//10
f 30//10 27//10 10//10
f 28//10 11//10 10//10
f 25//10 29//10 10//10
f 30//11 19//11 18//11
f 27//12 18//12 20//12
f 28//13 20//13 12//13
f 12//13 11//13 28//13
f 20//12 28//12 27//12
f 18//11 27//11 30//11
f 16//14 24//14 23//14
f 21//15 23//15 26//15
f 22//16 26//16 14//16
f 14//16 13//16 22//16
f 26//15 22//15 21//15
f 23//14 21//14 16//14
f 24//17 16//17 15//17
f 25//18 15//18 17//18
f 29//19 17//19 19//19
f 19//19 30//19 29//19
f 17//18 29//18 25//18
f 15//17 25//17 24//17
f 31//8 32//8 33//8
f 33//8 34//8 31//8
f 35//20 36//20 31//20
f 31//20 34//20 35//20
f 34//9 37//9 38//9
f 38//9 39//9 34//9
f 34//9 40//9 41//9
f 34//9 33//9 42//9
f 39//9 43//9 34//9
f 42//9 40//9 34//9
f 34//9 44//9 37//9
f 43//9 35//9 34//9
f 41//9 44//9 34//9
f 31//10 45//10 46//10
f 31//10 47//10 45//10
f 31//10 36//10 47//10
f 31//10 48//10 49//10
f 31//10 50//10 51//10
f 46//10 52//10 31//10
f 51//10 48//10 31//10
f 49//10 32//10 31//10
f 52//10 50//10 31//10
f 33//21 32//21 49//21
f 42//22 49//22 48//22
f 40//23 48//23 51//23
f 51//23 41//23 40//23
f 48//22 40//22 42//22
f 49//21 42//21 33//21
f 36//24 35//24 43//24
f 47//25 43//25 39//25
f 45//26 39//26 38//26
f 38//26 46//26 45//26
f 39//25 45//25 47//25
f 43//24 47//24 36//24
f 46//16 38//16 37//16
f 52//15 37//15 44//15
f 50//14 44//14 41//14
f 41//14 51//14 50//14
f 44//15 50//15 52//15
f 37//16 52//16 46//16
f 53//20 54//20 55//20
f 55//20 56//20 53//20
f 57//27 58//27 54//27
f 54//27 53//27 57//27
f 53//9 59//9 60//9
f 53//9 61//9 59//9
f 53//9 56//9 61//9
f 53//9 62//9 63//9
f 53//9 64//9 65//9
f 60//9 66//9 53//9
f 65//9 62//9 53//9
f 63//9 57//9 53//9
f 66//9 64//9 53//9
f 54//10 67//10 68//10
f 68//10 69//10 54//10
f 54//10 70//10 71//10
f 54//10 58//10 72//10
f 69//10 73//10 54//10
f 72//10 70//10 54//10
f 54//10 74//10 67//10
f 73//10 55//10 54//10
f 71//10 74//10 54//10
f 68//28 60//28 59//28
f 69//29 59//29 61//29
f 73//30 61//30 56//30
f 56//30 55//30 73//30
f 61//29 73//29 69//29
f 59//28 69//28 68//28
f 71//31 65//31 64//31
f 74//32 64//32 66//32
f 67//33 66//33 60//33
f 60//33 68//33 67//33
f 66//32 67//32 74//32
f 64//31 74//31 71//31
f 65//34 71//34 70//34
f 62//35 70//35 72//35
f 63//36 72//36 58//36
f 58//36 57//36 63//36
f 72//35 63//35 62//35
f 70//34 62//34 65//34
f 75//8 76//8 77//8
f 77//8 78//8 75//8
f 78//7 77//7 79//7
f 79//7 80//7 78//7
f 80//27 79//27 81//27
f 81//27 82//27 80//27
f 82//20 81//20 76//20
f 76//20 75//20 82//20
f 82//10 75//10 78//10
f 78//10 80//10 82//10
f 79//9 77//9 76//9
f 76//9 81//9 79//9
f 83//27 84//27 85//27
f 85//27 86//27 83//27
f 87//7 88//7 84//7
f 84//7 83//7 87//7
f 83//9 89//9 90//9
f 90//9 91//9 83//9
f 83//9 92//9 89//9
f 83//9 93//9 94//9
f 83//9 95//9 96//9
f 83//9 86//9 92//9
f 96//9 93//9 83//9
f 94//9 87//9 83//9
f 91//9 95//9 83//9
f 84//10 97//10 98//10
f 84//10 99//10 97//10
f 84//10 100//10 101//10
f 84//10 88//10 102//10
f 98//10 103//10 84//10
f 102//10 100//10 84//10
f 103//10 104//10 84//10
f 104//10 85//10 84//10
f 101//10 99//10 84//10
f 86//33 85//33 104//33
f 92//32 104//32 103//32
f 89//31 103//31 98//31
f 98//31 90//31 89//31
f 103//32 89//32 92//32
f 104//33 92//33 86//33
f 101//37 96//37 95//37
f 99//38 95//38 91//38
f 97//39 91//39 90//39
f 90//39 98//39 97//39
f 91//38 97//38 99//38
f 95//37 99//37 101//37
f 88//40 87//40 94//40
f 102//41 94//41 93//41
f 100//42 93//42 96//42
f 96//42 101//42 100//42
f 93//41 100//41 102//41
f 94//40 102//40 88//40
f 105//7 106//7 107//7
f 107//7 108//7 105//7
f 108//8 107//8 109//8
f 109//8 110//8 108//8
f 110//20 109//20 111//20
f 111//20 112//20 110//20
f 112//27 111//27 106//27
f 106//27 105//27 112//27
f 112//9 105//9 108//9
f 108//9 110//9 112//9
f 109//10 107//10 106//10
f 106//10 111//10 109//10
f 113//7 114//7 115//7
f 115//7 116//7 113//7
f 116//8 115//8 117//8
f 117//8 118//8 116//8
f 118//20 117//20 119//20
f 119//20 120//20 118//20
f 120//27 119//27 114//27
f 114//27 113//27 120//27
f 113//9 116//9 118//9
f 118//9 120//9 113//9
f 114//10 119//10 117//10
f 117//10 115//10 114//10
f 121//8 122//8 123//8
f 123//8 124//8 121//8
f 124//7 123//7 125//7
f 125//7 126//7 124//7
f 126//27 125//27 127//27
f 127//27 128//27 126//27
f 128//20 127//20 122//20
f 122//20 121//20 128//20
f 128//10 121//10 124//10
f 124//10 126//10 128//10
f 125//9 123//9 122//9
f 122//9 127//9 125//9
f 120//8 119//8 129//8
f 129//8 130//8 120//8
f 130//20 129//20 131//20
f 131//20 132//20 130//20
f 132//27 131//27 109//27
f 109//27 110//27 132//27
f 110//7 109//7 119//7
f 119//7 120//7 110//7
f 110//9 120//9 130//9
f 130//9 132//9 110//9
f 109//10 131//10 129//10
f 129//10 119//10 109//10
f 133//27 34//27 9//27
f 9//27 134//27 133//27
f 83//20 135//20 136//20
f 135//20 134//20 137//20
f 137//20 136//20 135//20
f 9//20 138//20 137//20
f 137//20 134//20 9//20
f 136//20 139//20 83//20
f 135//8 83//8 53//8
f 53//8 140//8 135//8
f 34//9 53//9 141//9
f 83//9 139//9 141//9
f 9//9 34//9 142//9
f 141//9 53//9 83//9
f 141//9 142//9 34//9
f 142//9 138//9 9//9
f 143//9 136//9 137//9
f 137//9 144//9 143//9
f 144//8 137//8 138//8
f 138//8 142//8 144//8
f 141//27 139//27 136//27
f 136//27 143//27 141//27
f 141//20 143//20 144//20
f 144//20 142//20 141//20
f 53//7 145//7 146//7
f 147//7 146//7 145//7
f 145//7 148//7 147//7
f 34//7 133//7 145//7
f 145//7 53//7 34//7
f 146//7 140//7 53//7
f 133//10 134//10 108//10
f 134//10 135//10 113//10
f 113//10 108//10 134//10
f 140//10 146//10 113//10
f 113//10 135//10 140//10
f 108//10 145//10 133//10
f 107//20 108//20 113//20
f 113//20 114//20 107//20
f 114//8 113//8 146//8
f 146//8 147//8 114//8
f 148//27 145//27 108//27
f 108//27 107//27 148//27
f 148//10 107//10 114//10
f 114//10 147//10 148//10
f 105//7 33//7 123//7
f 123//7 149//7 105//7
f 149//27 123//27 122//27
f 122//27 150//27 149//27
f 150//20 122//20 13//20
f 13//20 112//20 150//20
f 112//8 13//8 33//8
f 33//8 105//8 112//8
f 112//10 105//10 149//10
f 149//10 150//10 112//10
f 122//9 123//9 33//9
f 33//9 13//9 122//9
f 151//8 127//8 125//8
f 125//8 152//8 151//8
f 152//7 125//7 153//7
f 153//7 154//7 152//7
f 154//27 153//27 155//27
f 155//27 156//27 154//27
f 156//20 155//20 127//20
f 127//20 151//20 156//20
f 156//10 151//10 152//10
f 152//10 154//10 156//10
f 155//9 153//9 125//9
f 125//9 127//9 155//9
f 157//8 155//8 153//8
f 153//8 158//8 157//8
f 158//7 153//7 159//7
f 159//7 160//7 158//7
f 160//27 159//27 161//27
f 161//27 162//27 160//27
f 162//20 161//20 155//20
f 155//20 157//20 162//20
f 162//10 157//10 158//10
f 158//10 160//10 162//10
f 159//9 153//9 155//9
f 155//9 161//9 159//9
f 163//8 161//8 159//8
f 159//8 164//8 163//8
f 164//7 159//7 165//7
f 165//7 166//7 164//7
f 166//27 165//27 167//27
f 167//27 168//27 166//27
f 168//20 167//20 161//20
f 161//20 163//20 168//20
f 168//10 163//10 164//10
f 164//10 166//10 168//10
f 165//9 159//9 161//9
f 161//9 167//9 165//9
f 169//8 170//8 171//8
f 171//8 172//8 169//8
f 172//7 171//7 77//7
f 77//7 173//7 172//7
f 173//27 77//27 76//27
f 76//27 174//27 173//27
f 174//20 76//20 170//20
f 170//20 169//20 174//20
f 174//10 169//10 172//10
f 172//10 173//10 174//10
f 76//9 77//9 171//9
f 171//9 170//9 76//9
f 175//8 167//8 165//8
f 165//8 176//8 175//8
f 176//7 165//7 171//7
f 171//7 177//7 176//7
f 177//27 171//27 170//27
f 170//27 178//27 177//27
f 178//20 170//20 167//20
f 167//20 175//20 178//20
f 178//10 175//10 176//10
f 176//10 177//10 178//10
f 171//9 165//9 167//9
f 167//9 170//9 171//9
