# Alias OBJ Model File
# Exported from SketchUp, (c) 2000-2012 Trimble Navigation Limited
# File units = meters

mtllib palazzo.mtl

g Mesh1 Model

usemtl FrontColor
v 0 -2.56474e-30 -0
vt 0 0
vn 0 -1 -0
v 0 -2.56474e-30 -2
vt 0 78.7402
v 2 -2.56474e-30 -2
vt -78.7402 78.7402
v 2 -2.56474e-30 -0
vt -78.7402 0
f 1/1/1 2/2/1 3/3/1 4/4/1 

usemtl building
vt -2.77112e-13 0
vn -1 0 -0
vt 1 0
v 0 4 -0
vt 1 1
v 0 4 -2
vt -2.77112e-13 1
f 2/5/2 1/6/2 5/7/2 6/8/2 

vn 0 0 1
v 2 4 -0
vt 0 1
f 1/1/3 4/6/3 7/7/3 5/9/3 

vt -5.77529e-13 0
vn 1 0 -0
v 2 4 -2
vt -5.77529e-13 1
f 4/10/4 3/6/4 8/7/4 7/11/4 

vt -1.09446e-12 0
vn 0 0 -1
vt -1.09446e-12 1
f 3/12/5 2/6/5 6/7/5 8/13/5 

usemtl top
vn 0 1 -0
f 6/9/6 5/1/6 7/6/6 8/7/6 

