# Alias OBJ Model File
# Exported from SketchUp, (c) 2000-2012 Trimble Navigation Limited
# File units = meters

mtllib strada.mtl

g Mesh1 Model

usemtl sprite_4
v 5 0.56 -24.0133
vt 0 3.90799e-14
vn 0 1 -0
v 4 0.56 -24.0133
vt 1 1.06581e-13
v 4 0.56 -0.00666667
vt 1 24.0067
v 4 0.56 -0
vt 1 24.0133
v 5 0.56 -0.00666667
vt -1.15463e-14 24.0067
f 1/1/1 2/2/1 3/3/1 4/4/1 5/5/1 

usemtl _
v 4 0.56 -24.0267
vt 157.48 945.932
vt 157.48 945.407
vt 196.85 945.407
v 5 0.56 -24.0333
vt 196.85 946.194
f 6/6/1 2/7/1 1/8/1 7/9/1 

v 3 0.56 -24.02
vt 118.11 945.669
v 3 0.56 -24.0133
vt 118.11 945.407
f 8/10/1 9/11/1 2/7/1 6/6/1 

v 2 0.56 -24.0133
vt 78.7402 945.407
v 2 0.56 -24.0067
vt 78.7402 945.144
f 10/12/1 11/13/1 9/11/1 8/10/1 

usemtl sprite_4
v 1 0.56 -0
vt 0 0
v 2 0.56 -0
vt 1 0
v 1 0.56 -24.0067
vt 0 24.0067
f 12/14/1 13/15/1 11/3/1 10/4/1 14/16/1 

usemtl FrontColor
v 5 3.60956e-14 -0
vt 196.85 1.42109e-12
vn 0 0 1
v 5 0.56 -0
vt 196.85 22.0472
vt 157.48 22.0472
v 3 0.56 -0
vt 118.11 22.0472
vt 78.7402 22.0472
vt 39.3701 22.0472
v 1 3.60956e-14 -0
vt 39.3701 1.42109e-12
f 15/17/2 16/18/2 4/19/2 17/20/2 13/21/2 12/22/2 18/23/2 

vt -6.30659e-14 22.0472
vn 1 -1.03111e-14 -3.20375e-16
vt -6.30659e-14 3.45083e-12
v 5 3.60956e-14 -24.0333
vt 946.194 3.45083e-12
vt 946.194 22.0472
vt 945.407 22.0472
vt 0.262467 22.0472
f 16/24/3 15/25/3 19/26/3 7/27/3 1/28/3 5/29/3 

v 6 0.63 -0
vt 236.22 24.8031
v 5 0.63 -0
vt 196.85 24.8031
v 6 3.60956e-14 -0
vt 236.22 1.42109e-12
f 20/30/2 21/31/2 16/18/2 15/17/2 22/32/2 

usemtl marciapiede3
v 6 0.63 -24.0067
v 5 0.63 -24
vt 0 24
v 5 0.63 -22
vt 0 22
v 5 0.63 -20
vt 0 20
v 5 0.63 -18
vt 0 18
v 5 0.63 -16
vt 0 16
v 5 0.63 -14
vt 0 14
v 5 0.63 -12
vt 0 12
v 5 0.63 -10
vt 0 10
v 5 0.63 -8
vt 0 8
v 5 0.63 -6
vt 0 6
v 5 0.63 -4
vt 0 4
v 5 0.63 -2
vt 0 2
v 6 0.63 -24
vt 1 24
f 23/3/1 24/33/1 25/34/1 26/35/1 27/36/1 28/37/1 29/38/1 30/39/1 31/40/1 32/41/1 33/42/1 34/43/1 35/44/1 21/14/1 20/15/1 36/45/1 

usemtl FrontColor
v 6 0.63 -24.04
vt 236.22 946.457
v 5 0.63 -24.0333
vt 196.85 944.882
vt 236.22 945.144
f 37/46/1 38/9/1 24/47/1 23/48/1 

vt -203.154 24.8031
vn -0.00666652 5.4151e-19 -0.999978
vt -242.525 24.8031
v 6 3.60956e-14 -24.04
vt -242.525 1.42057e-12
vt -203.154 1.42057e-12
vt -203.154 22.0472
f 38/49/4 37/50/4 39/51/4 19/52/4 7/53/4 

vt 945.144 24.8031
vn 1 0 -0
vt 944.882 24.8031
v 6 3.60956e-14 -24
vt 944.882 1.42109e-12
vt 946.457 1.42109e-12
vt 946.457 24.8031
f 23/54/5 36/55/5 40/56/5 39/57/5 37/58/5 

vt 0 24.8031
vt 0 1.42109e-12
f 36/55/5 20/59/5 22/60/5 40/56/5 

vt -196.85 946.194
vn 0 -1 -0
vt -236.22 946.457
vt -236.22 944.882
vt -236.22 0
vt -196.85 0
f 19/61/6 39/62/6 40/63/6 22/64/6 15/65/6 

v 1 3.60956e-14 -24.0067
vt -39.3701 945.144
vt -39.3701 0
f 41/66/6 19/61/6 15/65/6 18/67/6 

vt -45.67 -6.11585e-13
vn -0.00666652 2.15129e-15 -0.999978
vt -45.67 22.0472
vt -85.041 22.0472
vt -124.412 22.0472
vt -163.783 22.0472
vt -203.154 -6.11585e-13
f 41/68/7 14/69/7 10/70/7 8/71/7 6/72/7 7/53/7 19/73/7 

vt -945.144 22.0472
vn -1 0 -0
vt -945.144 1.42109e-12
vt 0 22.0472
f 14/74/8 41/75/8 18/60/8 12/76/8 

v 2.31012e-14 0.63 -24
vt -6.29907 24.8031
vn -0.00666652 -3.61007e-19 -0.999978
v 1 0.63 -24.0067
vt -45.67 24.8031
vt -45.67 1.42143e-12
v 2.31012e-14 3.60956e-14 -24
vt -6.29907 1.42143e-12
f 42/77/9 43/78/9 14/69/9 41/79/9 44/80/9 

usemtl marciapiede3
v 2.31012e-14 0.63 -0
v 1 0.63 -0
f 43/3/1 42/33/1 45/14/1 46/15/1 

usemtl FrontColor
v 0 0 -0
vn -1 1.83343e-14 -4.81274e-16
vt -4.37716e-28 24.8031
vt -944.882 24.8031
vt -944.882 1.42109e-12
f 47/14/10 45/81/10 42/82/10 44/83/10 

vt 39.3701 24.8031
vt 9.09495e-13 24.8031
f 46/84/2 45/85/2 47/14/2 18/23/2 12/22/2 

vt -9.09495e-13 944.882
vn 1.80453e-14 -1 -7.51782e-16
vt -39.3701 5.34248e-28
f 44/86/11 41/66/11 18/87/11 47/14/11 

vt -945.144 24.8031
f 46/59/8 43/88/8 14/74/8 12/76/8 

vt 78.7402 24.8031
vn 1 8.01748e-14 -1.92694e-16
vt -3.7932e-14 24.8031
vt -3.7932e-14 22.0472
vt 946.194 24.8031
vt 866.142 24.8031
vt 787.402 24.8031
vt 708.661 24.8031
vt 629.921 24.8031
vt 551.181 24.8031
vt 472.441 24.8031
vt 393.701 24.8031
vt 314.961 24.8031
vt 157.48 24.8031
f 35/89/12 21/90/12 16/91/12 5/29/12 1/28/12 7/27/12 38/92/12 24/55/12 25/93/12 26/94/12 27/95/12 28/96/12 29/97/12 30/98/12 31/99/12 32/100/12 33/30/12 34/101/12 

usemtl _
vt 196.85 0
vt 196.85 0.262467
vt 157.48 0
f 16/102/1 5/103/1 4/104/1

vt 157.48 0.262467
vt 118.11 0
f 4/104/1 3/105/1 17/106/1

usemtl sprite_7
vt 2.30926e-14 3.55271e-15
vt 1 -3.19744e-14
vt 2.44249e-14 24.0067
f 2/107/1 9/108/1 17/4/1 3/109/1 

f 13/14/1 17/15/1 9/4/1 11/16/1 

